<?xml version="1.0" standalone="no"?>
<!DOCTYPE svg PUBLIC "-//W3C//DTD SVG 20010904//EN"
 "http://www.w3.org/TR/2001/REC-SVG-20010904/DTD/svg10.dtd">
<svg version="1.0" xmlns="http://www.w3.org/2000/svg"
 width="512.000000pt" height="512.000000pt" viewBox="0 0 512.000000 512.000000"
 preserveAspectRatio="xMidYMid meet">

<g transform="translate(0.000000,512.000000) scale(0.100000,-0.100000)"
fill="#000000" stroke="none">
<path d="M1800 5105 c-268 -60 -453 -303 -437 -571 4 -64 16 -112 57 -230 175
-500 234 -771 256 -1174 l6 -125 -149 -150 c-82 -82 -180 -188 -217 -235 -151
-190 -319 -471 -411 -690 -15 -36 -122 -319 -236 -629 -226 -609 -229 -621
-190 -706 22 -50 75 -103 121 -122 19 -9 118 -27 220 -42 l185 -26 7 -44 c15
-88 85 -167 169 -191 19 -6 195 -10 410 -10 l377 0 12 -30 c17 -42 90 -104
138 -118 55 -17 829 -17 884 0 48 14 121 76 138 117 l12 30 397 3 c437 3 423
1 490 69 40 39 60 79 69 132 l7 42 185 26 c102 15 201 33 220 41 80 34 139
125 140 215 0 75 -405 1154 -525 1398 -146 296 -321 541 -563 785 l-134 135 6
125 c21 399 81 673 256 1174 81 230 79 355 -8 520 -165 315 -617 395 -878 154
-23 -21 -88 -95 -145 -163 -57 -69 -106 -125 -109 -125 -3 0 -52 56 -109 125
-153 185 -209 231 -337 276 -78 27 -226 34 -314 14z m251 -164 c101 -32 147
-72 311 -269 155 -186 177 -204 224 -186 13 5 89 88 170 184 163 195 215 240
311 270 221 68 439 -42 512 -258 37 -108 31 -149 -60 -412 -116 -339 -166
-533 -198 -765 -6 -44 -14 -95 -17 -112 l-5 -33 -739 0 -739 0 -5 33 c-3 17
-11 68 -17 112 -32 232 -82 426 -198 765 -91 263 -97 304 -60 412 72 215 292
326 510 259z m1229 -1821 l0 -80 -720 0 -720 0 0 80 0 80 720 0 720 0 0 -80z
m191 -377 c156 -160 239 -261 350 -428 142 -214 227 -403 464 -1032 118 -315
215 -583 215 -596 0 -14 -8 -35 -19 -48 -16 -20 -40 -26 -207 -50 -104 -16
-192 -25 -195 -21 -3 4 -97 351 -208 772 -111 421 -209 775 -217 787 -30 47
-102 38 -132 -17 -12 -23 6 -100 207 -858 122 -458 221 -844 221 -858 0 -14
-11 -36 -25 -49 l-24 -25 -370 0 c-344 0 -370 1 -375 18 -2 9 -48 269 -102
577 -108 614 -105 605 -174 605 -35 0 -80 -38 -80 -68 0 -10 47 -287 105 -617
113 -637 113 -639 64 -665 -24 -13 -794 -13 -818 0 -49 26 -49 28 63 664 59
328 106 606 106 617 0 31 -44 69 -80 69 -69 0 -66 9 -174 -605 -54 -308 -100
-568 -102 -578 -5 -16 -31 -17 -375 -17 l-370 0 -24 25 c-14 13 -25 35 -25 49
0 13 99 399 221 857 201 760 220 836 207 859 -30 55 -102 64 -132 17 -8 -12
-106 -366 -217 -787 -111 -421 -205 -768 -208 -772 -3 -4 -91 5 -195 21 -167
24 -191 30 -207 50 -11 13 -19 34 -19 47 0 26 379 1057 447 1214 132 308 340
608 592 857 l124 123 777 0 776 0 135 -137z"/>
</g>
</svg>
