<svg xmlns="http://www.w3.org/2000/svg" width="200" height="200" viewBox="0 0 200 200" version="1.1">
	<path d="M 139.956 31.750 C 134.933 43.182, 129.995 47.575, 115.563 53.451 C 110.699 55.432, 111.496 56.411, 121.254 60.440 C 129.602 63.887, 136.613 71.077, 140.001 79.666 C 141.266 82.875, 142.892 86.142, 143.614 86.928 C 144.741 88.153, 145.025 88.083, 145.627 86.428 C 147.796 80.461, 151.379 73.192, 153.563 70.329 C 156.822 66.056, 163.532 61.494, 170.454 58.845 C 173.504 57.677, 176 56.110, 176 55.361 C 176 54.613, 175.438 54, 174.750 53.999 C 171.986 53.997, 160.262 47.648, 156.633 44.188 C 153.058 40.779, 146 28.227, 146 25.278 C 146 24.575, 145.406 24, 144.681 24 C 143.955 24, 141.829 27.487, 139.956 31.750 M 86.309 48.788 C 85.653 49.205, 83.721 53.332, 82.015 57.960 C 72.656 83.344, 60.441 96.041, 36.500 105.275 C 31.550 107.185, 26.681 109.027, 25.680 109.369 C 24.495 109.774, 23.971 110.767, 24.180 112.214 C 24.437 114.001, 26.459 115.234, 34.500 118.507 C 50.117 124.863, 56.917 128.905, 64.004 136.045 C 71.113 143.209, 75.270 150.210, 81.493 165.500 C 84.671 173.309, 86.026 175.567, 87.677 175.806 C 89.394 176.054, 90.123 175.207, 91.550 171.306 C 102.959 140.122, 112.944 129.340, 140.181 118.796 C 155.042 113.042, 155.269 111.513, 142 106.540 C 119.879 98.249, 108.157 88.776, 99.881 72.500 C 97.364 67.550, 94.263 60.575, 92.989 57 C 89.869 48.238, 88.950 47.109, 86.309 48.788" stroke="none" fill-rule="evenodd"/>
</svg>