<?xml version="1.0" standalone="no"?>
<!DOCTYPE svg PUBLIC "-//W3C//DTD SVG 20010904//EN"
 "http://www.w3.org/TR/2001/REC-SVG-20010904/DTD/svg10.dtd">
<svg version="1.0" xmlns="http://www.w3.org/2000/svg"
 width="512.000000pt" height="512.000000pt" viewBox="0 0 512.000000 512.000000"
 preserveAspectRatio="xMidYMid meet">

<g transform="translate(0.000000,512.000000) scale(0.100000,-0.100000)"
fill="#000000" stroke="none">
<path d="M1683 4941 c-124 -57 -209 -220 -232 -446 -5 -47 -10 -88 -13 -90 -2
-2 -46 -9 -98 -15 -453 -53 -763 -283 -919 -685 -50 -127 -88 -299 -98 -440
-4 -60 -6 -667 -3 -1347 l5 -1238 78 -77 77 -78 0 -158 c0 -154 1 -158 25
-182 l24 -25 351 0 351 0 24 25 c24 24 25 28 25 183 l0 158 40 39 40 39 40
-39 40 -39 0 -158 c0 -155 1 -159 25 -183 l24 -25 1071 0 1071 0 24 25 c24 24
25 28 25 183 l0 158 40 39 40 39 40 -39 40 -39 0 -158 c0 -155 1 -159 25 -183
l24 -25 351 0 351 0 24 25 c24 24 25 28 25 182 l0 158 77 78 78 77 5 1233 c3
677 2 1281 -2 1340 -33 474 -248 843 -594 1016 -135 68 -270 104 -465 126 -63
7 -68 14 -69 90 -1 65 -37 211 -69 278 -39 80 -81 130 -139 165 l-47 27 -845
2 c-815 3 -846 2 -887 -16z m1556 -193 c-58 -148 -141 -248 -251 -303 -39 -19
-77 -35 -85 -35 -53 0 -151 -90 -171 -159 -9 -28 -12 -537 -12 -1985 l0 -1946
-160 0 -160 0 0 1946 c0 1448 -3 1957 -12 1985 -13 45 -68 113 -107 133 -15 8
-56 24 -91 36 -140 47 -241 154 -309 328 l-21 52 700 0 700 0 -21 -52z m-1499
-76 c78 -203 242 -365 417 -411 77 -21 83 -35 83 -193 0 -158 6 -152 -98 -122
-173 49 -394 207 -518 369 l-28 37 12 106 c12 115 39 217 72 271 12 18 23 32
25 30 1 -2 17 -41 35 -87z m1730 -9 c21 -57 50 -219 50 -283 0 -28 -11 -48
-59 -103 -79 -91 -189 -186 -283 -243 -78 -47 -228 -104 -273 -104 l-25 0 0
140 c0 160 4 170 82 190 177 48 341 210 420 416 32 85 32 86 50 65 9 -12 26
-47 38 -78z m-1906 -520 c194 -207 393 -327 606 -367 l65 -12 3 -1562 2 -1562
-343 0 -343 0 -57 58 -57 58 0 1157 0 1158 -25 24 c-39 40 -96 32 -120 -16
-13 -24 -15 -188 -15 -1176 l0 -1147 -57 -58 -57 -58 -286 0 -286 0 -56 57
-57 58 -1 1250 c-1 848 2 1274 10 1325 77 533 363 837 850 899 135 17 123 22
224 -86z m2310 70 c286 -53 510 -222 640 -481 43 -85 85 -222 106 -348 20
-116 21 -152 20 -1374 l-1 -1255 -56 -58 -57 -57 -286 0 -286 0 -57 58 -57 58
0 1147 c0 988 -2 1152 -15 1176 -24 48 -81 56 -120 16 l-25 -24 0 -1158 0
-1157 -57 -58 -57 -58 -343 0 -343 0 2 1562 3 1562 65 12 c212 40 409 158 597
359 l98 106 75 -7 c41 -3 111 -12 154 -21z m-2754 -3813 l0 -80 -240 0 -240 0
0 80 0 80 240 0 240 0 0 -80z m1120 0 l0 -80 -320 0 -320 0 0 80 0 80 320 0
320 0 0 -80z m1280 0 l0 -80 -320 0 -320 0 0 80 0 80 320 0 320 0 0 -80z m960
0 l0 -80 -240 0 -240 0 0 80 0 80 240 0 240 0 0 -80z"/>
</g>
</svg>
