<?xml version="1.0" standalone="no"?>
<!DOCTYPE svg PUBLIC "-//W3C//DTD SVG 20010904//EN"
 "http://www.w3.org/TR/2001/REC-SVG-20010904/DTD/svg10.dtd">
<svg version="1.0" xmlns="http://www.w3.org/2000/svg"
 width="1200.000000pt" height="1200.000000pt" viewBox="0 0 1200.000000 1200.000000"
 preserveAspectRatio="xMidYMid meet">

<g transform="translate(0.000000,1200.000000) scale(0.100000,-0.100000)"
fill="#000000" stroke="none">
<path d="M3841 11103 c-18 -9 -42 -31 -52 -47 -18 -29 -19 -57 -19 -394 0
-327 -3 -392 -30 -670 -16 -169 -36 -377 -45 -462 -24 -252 -83 -940 -110
-1290 -87 -1129 -115 -1770 -115 -2605 1 -264 -18 -1418 -41 -2564 -42 -2066
-43 -2084 -23 -2119 10 -19 35 -43 54 -54 33 -17 81 -18 975 -18 894 0 942 1
975 18 19 11 42 34 52 53 31 60 326 2496 493 4066 19 183 35 347 35 363 0 61
17 19 24 -57 38 -425 261 -2353 441 -3813 72 -582 72 -582 139 -614 31 -14
131 -16 973 -16 896 0 940 1 973 19 19 10 44 33 54 51 21 35 17 278 -44 3170
-5 234 -14 677 -21 985 -6 308 -9 659 -5 780 19 680 -85 2303 -269 4163 -32
318 -35 382 -35 665 0 295 -1 314 -20 345 -41 67 124 62 -2207 62 -1955 0
-2121 -2 -2152 -17z m717 -435 l2 -178 -260 0 -260 0 0 180 0 180 258 -2 257
-3 3 -177z m702 2 l0 -180 -215 0 -215 0 0 180 0 180 215 0 215 0 0 -180z
m1200 0 l0 -180 -460 0 -460 0 0 180 0 180 460 0 460 0 0 -180z m710 0 l0
-180 -215 0 -215 0 0 180 0 180 215 0 215 0 0 -180z m780 0 l0 -180 -255 0
-255 0 0 173 c0 96 3 177 7 180 3 4 118 7 255 7 l248 0 0 -180z m-3007 -522
c-27 -444 -288 -767 -741 -918 -102 -34 -249 -66 -258 -57 -4 4 14 231 40 504
25 274 46 506 46 516 0 16 28 17 458 17 l458 0 -3 -62z m447 2 c0 -33 -13
-239 -30 -458 -49 -657 -53 -753 -54 -1107 0 -441 23 -684 89 -932 55 -210
122 -340 231 -450 66 -67 131 -108 217 -137 20 -6 20 -10 7 -221 -51 -780
-213 -2307 -481 -4520 -38 -319 -72 -595 -75 -613 l-6 -32 -810 0 -810 0 6
113 c3 61 20 843 37 1737 17 894 33 1631 35 1638 3 9 125 12 569 12 625 0 606
-2 645 63 19 31 20 56 20 757 0 701 -1 726 -20 757 -39 65 -21 63 -635 63
l-555 0 0 48 c0 163 111 1726 138 1956 l7 59 135 27 c242 49 451 133 626 251
89 60 226 188 289 269 142 185 229 427 251 703 l6 77 84 0 84 0 0 -60z m470
-1365 c0 -1406 0 -1426 -19 -1415 -48 25 -123 145 -163 260 -63 184 -89 397
-95 800 -6 392 22 972 83 1708 l6 72 94 0 94 0 0 -1425z m924 1333 c42 -563
377 -971 947 -1153 46 -15 144 -39 216 -54 73 -15 135 -30 137 -32 15 -15 146
-1820 146 -2011 l0 -48 -556 0 c-541 0 -558 -1 -589 -20 -66 -41 -65 -23 -65
-800 0 -777 -1 -759 65 -800 31 -19 48 -20 599 -20 445 0 567 -3 570 -12 2 -7
18 -744 35 -1638 17 -894 34 -1676 37 -1738 l5 -112 -809 0 -810 0 -6 33 c-3
17 -37 293 -76 612 -263 2185 -430 3761 -480 4540 -6 97 -10 780 -10 1752 l0
1593 319 0 318 0 7 -92z m1189 25 c3 -38 25 -269 48 -516 23 -246 39 -450 35
-454 -18 -18 -284 58 -414 118 -356 164 -550 446 -586 852 l-7 67 459 0 459 0
6 -67z m-3263 -3798 l0 -205 -480 0 -480 0 0 189 c0 104 3 196 6 205 5 14 57
16 480 16 l474 0 0 -205z m3534 189 c3 -9 6 -101 6 -205 l0 -189 -475 0 -475
0 0 205 0 205 469 0 c418 0 470 -2 475 -16z m-3534 -874 l0 -210 -480 0 -480
0 0 210 0 210 480 0 480 0 0 -210z m3540 0 l0 -210 -475 0 -475 0 0 210 0 210
475 0 475 0 0 -210z m-3316 -4260 l322 0 -15 -122 -16 -123 -774 -3 c-457 -1
-779 2 -784 7 -5 5 -6 58 -2 125 l7 116 457 2 c251 2 462 2 469 1 8 -2 159 -3
336 -3z m3393 -3 c1 -1 3 -56 5 -122 l3 -120 -780 0 -780 0 -16 122 -15 123
270 2 c263 3 1309 -2 1313 -5z"/>
</g>
</svg>
