<?xml version="1.0" standalone="no"?>
<!DOCTYPE svg PUBLIC "-//W3C//DTD SVG 20010904//EN"
 "http://www.w3.org/TR/2001/REC-SVG-20010904/DTD/svg10.dtd">
<svg version="1.0" xmlns="http://www.w3.org/2000/svg"
 width="512.000000pt" height="512.000000pt" viewBox="0 0 512.000000 512.000000"
 preserveAspectRatio="xMidYMid meet">

<g transform="translate(0.000000,512.000000) scale(0.100000,-0.100000)"
fill="#000000" stroke="none">
<path d="M1714 5097 c-29 -12 -251 -123 -494 -246 -464 -234 -500 -256 -558
-349 -16 -26 -170 -319 -342 -652 -339 -655 -340 -655 -306 -743 32 -83 59
-100 593 -358 l503 -242 2 -1126 3 -1126 26 -55 c33 -69 97 -133 169 -168 l55
-27 1195 0 1195 0 57 28 c72 35 134 97 167 167 l26 55 3 1126 2 1125 506 245
c545 263 565 275 594 364 27 82 21 97 -311 738 -171 331 -325 623 -341 650
-59 93 -101 119 -600 371 -348 175 -485 239 -518 243 -26 3 -103 -6 -185 -22
-404 -75 -782 -75 -1187 0 -166 30 -189 31 -254 2z m388 -197 c349 -52 671
-44 1091 26 38 7 38 7 31 -22 -24 -102 -90 -220 -160 -288 -88 -86 -182 -133
-324 -162 -103 -20 -322 -15 -415 11 -209 58 -359 203 -419 404 -9 30 -16 57
-16 59 0 3 17 2 38 -2 20 -3 99 -15 174 -26z m-372 -19 c0 -32 49 -162 85
-227 101 -180 255 -296 470 -356 70 -19 105 -22 275 -22 170 0 205 3 275 22
302 84 473 267 561 600 2 8 145 -59 404 -188 l401 -201 -45 -50 c-165 -183
-271 -448 -305 -761 -7 -65 -11 -644 -11 -1742 0 -1138 -3 -1653 -11 -1673
-14 -38 -57 -83 -96 -99 -27 -12 -227 -14 -1172 -14 -781 0 -1149 3 -1168 11
-31 11 -78 53 -96 84 -9 15 -13 459 -18 1740 -5 1563 -7 1728 -22 1805 -56
277 -144 475 -289 642 l-49 57 398 200 c219 109 401 197 406 194 4 -2 7 -12 7
-22z m-829 -618 c88 -128 153 -293 186 -476 13 -75 17 -183 20 -589 3 -274 3
-498 0 -498 -10 0 -894 430 -915 445 -12 9 -22 23 -22 31 0 8 140 284 311 615
l312 600 29 -27 c15 -16 51 -61 79 -101z m3742 -480 c169 -326 307 -599 307
-606 0 -8 -8 -21 -17 -29 -14 -12 -854 -423 -911 -445 -11 -5 -13 81 -9 498 3
423 7 518 21 594 35 181 116 382 198 489 50 65 91 107 98 99 4 -5 145 -275
313 -600z"/>
</g>
</svg>
