<?xml version="1.0" standalone="no"?>
<!DOCTYPE svg PUBLIC "-//W3C//DTD SVG 20010904//EN"
 "http://www.w3.org/TR/2001/REC-SVG-20010904/DTD/svg10.dtd">
<svg version="1.0" xmlns="http://www.w3.org/2000/svg"
 width="320.000000pt" height="275.000000pt" viewBox="0 0 320.000000 275.000000"
 preserveAspectRatio="xMidYMid meet">

<g transform="translate(0.000000,275.000000) scale(0.100000,-0.100000)"
fill="#000000" stroke="none">
<path d="M730 2252 c-70 -32 -140 -130 -204 -286 -26 -63 -62 -130 -86 -160
-136 -169 -170 -235 -170 -328 0 -70 29 -126 97 -188 96 -88 223 -141 624
-259 117 -34 183 -64 470 -209 328 -165 515 -247 674 -293 67 -20 102 -24 215
-23 223 0 394 50 483 140 51 51 67 85 74 150 8 76 -15 130 -82 193 -69 66
-147 101 -246 111 -105 10 -158 38 -254 134 -96 97 -271 326 -314 414 -18 34
-62 142 -100 240 -80 207 -109 268 -146 302 -59 55 -154 19 -310 -118 l-100
-87 -84 7 c-110 9 -161 35 -281 143 -52 47 -113 94 -135 105 -41 20 -96 25
-125 12z m95 -101 c17 -10 68 -53 115 -95 47 -42 103 -88 125 -101 52 -31 135
-52 240 -61 l84 -7 96 87 c102 92 178 146 206 146 9 0 23 -10 31 -22 17 -27
81 -179 76 -182 -2 -2 -31 -22 -66 -45 -67 -45 -81 -64 -65 -89 23 -37 40 -37
97 1 31 20 60 37 65 37 5 0 18 -24 29 -52 11 -29 23 -60 27 -69 4 -12 -11 -27
-59 -58 -72 -47 -87 -72 -60 -102 24 -27 37 -24 103 20 l58 40 41 -64 41 -65
-77 -52 c-79 -54 -97 -83 -72 -114 20 -23 42 -17 121 36 40 27 77 50 80 50 4
0 41 -43 84 -95 156 -193 265 -269 405 -285 94 -11 152 -34 208 -84 81 -74 82
-126 2 -174 -154 -92 -355 -88 -627 14 -198 74 -377 174 -743 414 -140 92
-275 178 -299 190 -25 12 -129 51 -232 86 -201 68 -267 97 -341 151 -68 49
-69 62 -8 139 35 43 66 99 94 168 50 121 82 179 126 224 37 37 53 39 95 13z
m-242 -689 c45 -22 154 -63 242 -92 88 -29 183 -64 210 -78 28 -13 153 -92
278 -174 125 -82 281 -181 345 -220 223 -133 477 -244 637 -278 118 -26 75
-42 -51 -19 -160 28 -370 115 -799 332 -267 136 -315 156 -440 191 -548 154
-704 264 -623 441 l10 23 54 -44 c30 -24 91 -61 137 -82z"/>
</g>
</svg>
