<?xml version="1.0" standalone="no"?>
<!DOCTYPE svg PUBLIC "-//W3C//DTD SVG 20010904//EN"
 "http://www.w3.org/TR/2001/REC-SVG-20010904/DTD/svg10.dtd">
<svg version="1.0" xmlns="http://www.w3.org/2000/svg"
 width="512.000000pt" height="512.000000pt" viewBox="0 0 512.000000 512.000000"
 preserveAspectRatio="xMidYMid meet">

<g transform="translate(0.000000,512.000000) scale(0.100000,-0.100000)"
fill="#000000" stroke="none">
<path d="M745 4055 l-25 -24 0 -249 0 -249 -280 -880 c-154 -484 -280 -890
-280 -902 0 -35 41 -67 96 -75 233 -34 730 -152 1057 -250 316 -96 701 -233
971 -345 54 -23 108 -41 120 -41 37 0 60 25 106 119 24 50 47 91 50 91 3 0 28
-44 55 -98 39 -75 56 -99 77 -106 28 -10 21 -12 1038 290 360 106 550 162 890
263 315 93 340 104 340 153 0 12 -126 417 -280 901 l-280 880 0 249 0 249 -25
24 c-13 14 -31 25 -39 25 -9 0 -197 -20 -418 -45 -907 -100 -1257 -124 -1561
-107 -256 15 -641 51 -1154 107 -221 25 -409 45 -418 45 -9 0 -27 -11 -40 -25z
m345 -170 c321 -36 822 -85 1025 -100 121 -9 253 -18 293 -21 l72 -6 0 -160 0
-160 -67 6 c-38 3 -113 8 -168 11 -153 9 -693 61 -1042 100 -172 19 -315 35
-318 35 -3 0 -5 72 -5 161 l0 161 38 -6 c20 -3 98 -12 172 -21z m3152 -135
c-2 -88 -5 -160 -7 -160 -2 0 -122 -13 -267 -30 -456 -51 -871 -91 -1093 -105
-49 -3 -123 -8 -162 -11 l-73 -6 0 160 0 160 73 6 c39 3 146 10 237 16 177 12
858 79 1105 109 83 10 159 19 170 20 19 1 20 -4 17 -159z m-3163 -342 l204
-23 -6 -110 c-6 -128 -29 -204 -88 -295 -104 -161 -255 -246 -458 -257 -86 -5
-103 -4 -99 8 3 8 54 168 114 357 60 188 113 342 119 342 5 0 102 -10 214 -22z
m3295 -320 c60 -189 111 -349 114 -357 4 -12 -13 -13 -99 -8 -166 8 -278 57
-389 169 -108 109 -165 262 -158 423 l3 70 180 21 c99 12 194 22 210 23 l30 1
109 -342z m-2614 247 c245 -22 386 -34 628 -51 l92 -6 0 -909 0 -909 -57 -115
c-32 -63 -62 -115 -67 -115 -5 0 -86 30 -180 66 -569 221 -1168 399 -1659 495
-95 18 -167 37 -167 43 0 6 51 171 114 366 l113 355 139 7 c229 10 362 66 509
213 140 140 202 281 212 482 l6 112 26 -5 c14 -2 145 -15 291 -29z m1923 -77
c10 -202 72 -343 212 -483 147 -147 280 -203 509 -213 l139 -7 118 -370 c65
-203 117 -370 116 -371 -3 -3 -1956 -581 -1989 -589 -26 -7 -29 -3 -87 114
l-61 121 0 515 c0 429 2 515 14 515 7 0 45 16 83 35 86 43 144 103 186 193
l32 67 3 258 c2 162 7 257 13 257 33 0 670 63 700 69 3 0 9 -50 12 -111z
m-883 -194 c0 -141 -4 -231 -12 -258 -13 -45 -105 -146 -132 -146 -14 0 -16
35 -16 310 l0 310 80 0 80 0 0 -216z"/>
<path d="M2745 3655 c-16 -15 -25 -36 -25 -55 0 -19 9 -40 25 -55 15 -16 36
-25 55 -25 19 0 40 9 55 25 16 15 25 36 25 55 0 19 -9 40 -25 55 -15 16 -36
25 -55 25 -19 0 -40 -9 -55 -25z"/>
</g>
</svg>
