<svg xmlns="http://www.w3.org/2000/svg" width="2048" height="2048" viewBox="0 0 2048 2048" version="1.1">
	<path d="M 1005.111 2.486 C 1001.597 3.281, 995.072 5.323, 990.611 7.024 C 971.879 14.166, 992.643 -5.855, 681.698 304.886 C 524.507 461.974, 393.689 593.454, 390.991 597.064 C 384.847 605.287, 378.678 618.085, 375.840 628.500 C 372.715 639.963, 372.730 663.887, 375.869 675.500 C 383.588 704.056, 404.126 727.030, 431.632 737.877 C 444.070 742.782, 451.997 744.238, 466.500 744.283 C 481.384 744.328, 487.974 743.033, 501.319 737.439 C 520.035 729.594, 509.632 739.513, 727.915 521.370 L 930.500 318.915 931 957.707 L 931.500 1596.500 934.145 1606.064 C 943.112 1638.485, 967.902 1663.184, 1000.500 1672.175 C 1011.657 1675.252, 1035.818 1675.285, 1047 1672.238 C 1080.115 1663.215, 1104.790 1638.500, 1114.130 1605 L 1116.500 1596.500 1117 957.797 L 1117.500 319.093 1320 521.316 C 1526.833 727.865, 1526.965 727.993, 1541.500 735.265 C 1563.684 746.365, 1592.763 747.434, 1616.098 738.007 C 1637.276 729.452, 1653.569 715.076, 1663.997 695.743 C 1669.268 685.971, 1671.504 679.227, 1673.571 666.866 C 1677.674 642.330, 1671.048 615.332, 1656.179 596 C 1653.429 592.425, 1522.552 461.008, 1365.340 303.963 C 1046.327 -14.713, 1075.479 13.112, 1052.500 5.366 C 1042.048 1.843, 1040.752 1.643, 1026.500 1.350 C 1016.029 1.135, 1009.571 1.478, 1005.111 2.486 M 80 1490.163 C 76.425 1490.667, 69.225 1492.539, 64 1494.322 C 33.294 1504.800, 10.480 1529.950, 2.914 1561.663 C 1.013 1569.631, 0.973 1574.603, 1.233 1770.663 L 1.500 1971.500 5.228 1982.500 C 11.244 2000.253, 20.443 2013.946, 34.148 2025.549 C 46.121 2035.686, 62.630 2043.351, 78.169 2045.987 C 82.658 2046.749, 358.860 2046.980, 1027.500 2046.781 L 1970.500 2046.500 1979.421 2043.705 C 1996.925 2038.220, 2010.017 2030.124, 2021.822 2017.484 C 2030.683 2007.995, 2037.124 1997.776, 2041.111 1986.880 C 2047.328 1969.891, 2047.001 1981.993, 2046.992 1769.162 C 2046.987 1640.115, 2046.637 1572.355, 2045.952 1568.137 C 2040.382 1533.806, 2016.564 1505.463, 1983.874 1494.266 C 1964.142 1487.508, 1944.618 1487.528, 1924.500 1494.327 C 1900.218 1502.533, 1881.273 1519.532, 1869.984 1543.241 C 1865.081 1553.539, 1863.181 1560.735, 1861.996 1573.500 C 1861.479 1579.065, 1861.052 1645.030, 1861.034 1722.250 L 1861 1861 1024 1861 L 187 1861 186.999 1723.750 C 186.998 1585.788, 186.682 1571.365, 183.377 1558.500 C 177.049 1533.871, 158.356 1510.737, 135.500 1499.250 C 118.726 1490.820, 98.652 1487.534, 80 1490.163" stroke="none" fill-rule="evenodd"/>
</svg>