<svg xmlns="http://www.w3.org/2000/svg" width="1024" height="1024" viewBox="0 0 1024 1024" version="1.1">
	<path d="M 491 32.675 C 395.511 36.930, 302.551 69.889, 226.454 126.472 C 189.590 153.882, 153.882 189.590, 126.472 226.454 C 20.769 368.611, 2.596 559.668, 79.545 719.786 C 112.944 789.282, 164.073 851.143, 226.454 897.529 C 325.109 970.887, 449.605 1003.394, 572.500 987.884 C 653.917 977.608, 731.327 946.516, 797.546 897.493 C 834.128 870.410, 870.410 834.128, 897.493 797.546 C 945.123 733.209, 975.776 658.476, 986.929 579.500 C 998.583 496.975, 988.781 413.512, 958.333 336 C 925.940 253.539, 869.508 180.010, 797.500 126.441 C 709.995 61.344, 600.356 27.803, 491 32.675 M 481.500 125.674 C 433.749 129.707, 387.670 142.161, 345.293 162.489 C 283.621 192.072, 229.297 238.921, 191.058 295.500 C 156.969 345.939, 135.914 401.687, 127.417 464 C 125.283 479.650, 124.400 526.698, 125.915 544.084 C 132.714 622.156, 161.224 693.141, 210.626 755 C 224.392 772.238, 251.650 799.510, 269 813.404 C 325.377 858.552, 388.943 885.881, 461.535 896.179 C 475.640 898.180, 481.521 898.444, 512 898.444 C 542.468 898.444, 548.364 898.180, 562.444 896.182 C 649.720 883.799, 724.256 846.837, 785.547 785.547 C 847.595 723.498, 884.655 647.948, 896.676 559 C 899.300 539.582, 899.300 484.418, 896.676 465 C 884.652 376.024, 847.615 300.522, 785.547 238.453 C 720.392 173.299, 637.489 134.400, 546 126.056 C 535.590 125.106, 491.324 124.844, 481.500 125.674 M 368.500 289.060 C 366.476 289.654, 353.095 302.393, 327.364 328.220 C 285.624 370.118, 286.570 368.884, 289.043 378.235 C 290.047 382.030, 297.289 389.630, 354.811 447.250 L 419.450 512 354.811 576.750 C 297.289 634.370, 290.047 641.970, 289.043 645.765 C 286.562 655.145, 285.549 653.831, 327.859 696.141 C 370.169 738.451, 368.855 737.438, 378.235 734.957 C 382.030 733.953, 389.624 726.717, 447.194 669.245 C 506.333 610.208, 512.040 604.784, 513.658 606.081 C 514.632 606.861, 543.795 635.941, 578.465 670.701 C 634.967 727.353, 641.942 734.016, 645.765 734.994 C 655.183 737.404, 653.850 738.432, 696.141 696.141 C 738.448 653.834, 737.433 655.150, 734.962 645.765 C 733.962 641.966, 726.773 634.424, 669.187 576.750 L 604.536 512 669.187 447.250 C 726.773 389.576, 733.962 382.034, 734.962 378.235 C 737.433 368.850, 738.448 370.166, 696.141 327.859 C 653.846 285.564, 655.175 286.589, 645.765 289.014 C 641.947 289.998, 634.758 296.866, 577.161 354.557 C 541.775 390, 512.536 419, 512.186 419 C 511.836 419, 482.513 390.016, 447.025 354.592 C 391.735 299.403, 381.927 290.029, 378.500 289.098 C 373.907 287.850, 372.642 287.845, 368.500 289.060" stroke="none" fill-rule="evenodd"/>
</svg>